<?xml version="1.0" encoding="UTF-8" standalone="no"?>
<!-- Created with Inkscape (http://www.inkscape.org/) -->

<svg
   width="253.26447"
   height="253.26614"
   viewBox="0 0 67.009558 67.010002"
   version="1.1"
   id="svg1"
   xml:space="preserve"
   inkscape:version="1.3.2 (091e20ef0f, 2023-11-25, custom)"
   sodipodi:docname="ocultar-logo.svg"
   inkscape:export-filename="logo.png"
   inkscape:export-xdpi="96"
   inkscape:export-ydpi="96"
   xmlns:inkscape="http://www.inkscape.org/namespaces/inkscape"
   xmlns:sodipodi="http://sodipodi.sourceforge.net/DTD/sodipodi-0.dtd"
   xmlns="http://www.w3.org/2000/svg"
   xmlns:svg="http://www.w3.org/2000/svg"><sodipodi:namedview
     id="namedview1"
     pagecolor="#ffffff"
     bordercolor="#000000"
     borderopacity="0.25"
     inkscape:showpageshadow="2"
     inkscape:pageopacity="0.0"
     inkscape:pagecheckerboard="0"
     inkscape:deskcolor="#d1d1d1"
     inkscape:document-units="mm"
     showguides="false"
     inkscape:zoom="0.73139029"
     inkscape:cx="401.97416"
     inkscape:cy="561.25984"
     inkscape:window-width="1920"
     inkscape:window-height="994"
     inkscape:window-x="0"
     inkscape:window-y="0"
     inkscape:window-maximized="1"
     inkscape:current-layer="layer1"
     inkscape:export-bgcolor="#ffffff00" /><defs
     id="defs1" /><g
     inkscape:label="Layer 1"
     inkscape:groupmode="layer"
     id="layer1"
     transform="translate(-1.108809,-28.316329)"><path
       style="fill:#000000;stroke-width:0.243238"
       id="path4"
       sodipodi:type="arc"
       sodipodi:cx="54.060909"
       sodipodi:cy="38.902103"
       sodipodi:rx="30.734095"
       sodipodi:ry="32.584209"
       sodipodi:start="0"
       sodipodi:end="5.9391286"
       sodipodi:open="true"
       sodipodi:arc-type="arc"
       d="M 84.795004,38.902103 A 30.734095,32.584209 0 0 1 56.701219,71.365851 30.734095,32.584209 0 0 1 23.780463,44.479905 30.734095,32.584209 0 0 1 46.217925,7.396713 30.734095,32.584209 0 0 1 82.993803,27.911162"
       transform="matrix(0.87765713,0.47928902,-0.38782099,0.92173471,0,0)"
       inkscape:export-filename="logo.svg"
       inkscape:export-xdpi="97.036911"
       inkscape:export-ydpi="97.036911" /><path
       style="fill:#000000;stroke-width:0.245452"
       id="path4-4"
       sodipodi:type="arc"
       sodipodi:cx="54.398743"
       sodipodi:cy="39.523582"
       sodipodi:rx="31.233116"
       sodipodi:ry="32.650364"
       sodipodi:start="0"
       sodipodi:end="5.9391286"
       sodipodi:open="true"
       sodipodi:arc-type="arc"
       d="M 85.631859,39.523582 A 31.233116,32.650364 0 0 1 57.081922,72.05324 31.233116,32.650364 0 0 1 23.62664,45.112708 31.233116,32.650364 0 0 1 46.428414,7.9542279 31.233116,32.650364 0 0 1 83.801412,28.510327"
       transform="matrix(0.88216058,0.47094874,-0.39533757,0.9185359,0,0)" /><path
       style="fill:#000000;stroke-width:0.200159"
       id="path2-5"
       sodipodi:type="arc"
       sodipodi:cx="73.862228"
       sodipodi:cy="-64.513"
       sodipodi:rx="22.749964"
       sodipodi:ry="23.540056"
       sodipodi:start="0"
       sodipodi:end="2.8971767"
       sodipodi:open="true"
       sodipodi:arc-type="arc"
       d="M 96.612192,-64.513 A 22.749964,23.540056 0 0 1 76.63554,-41.148508 22.749964,23.540056 0 0 1 51.78842,-58.81655"
       transform="matrix(0.03764923,0.99929102,-0.99950383,0.03149759,0,0)"
       inkscape:transform-center-x="10.82769"
       inkscape:transform-center-y="-0.34725899" /><ellipse
       style="fill:#ffffff;stroke-width:0.288852"
       id="path3"
       cx="31.658411"
       cy="52.110893"
       rx="23.379128"
       ry="19.968124" /><path
       style="fill:#ffffff;stroke-width:0.315981"
       id="path3-6"
       sodipodi:type="arc"
       sodipodi:cx="53.734535"
       sodipodi:cy="-35.867813"
       sodipodi:rx="20.91515"
       sodipodi:ry="26.709785"
       sodipodi:start="0"
       sodipodi:end="3.1415927"
       sodipodi:arc-type="slice"
       d="m 74.649685,-35.867813 a 20.91515,26.709785 0 0 1 -10.457575,23.131353 20.91515,26.709785 0 0 1 -20.91515,-1e-6 20.91515,26.709785 0 0 1 -10.457574,-23.131352 h 20.915149 z"
       transform="rotate(90)" /><ellipse
       style="fill:#000000;stroke-width:0.306312"
       id="path5"
       cx="19.834196"
       cy="48.743206"
       rx="12.637581"
       ry="13.00689" /><ellipse
       style="fill:#ffffff;stroke-width:0.287014"
       id="path6"
       cx="19.885445"
       cy="48.999458"
       rx="9.3470678"
       ry="9.5348835" /><ellipse
       style="fill:#000000;stroke-width:0.21233"
       id="path7"
       cx="19.938267"
       cy="48.957146"
       rx="5.1786957"
       ry="5.1752644" /><ellipse
       style="fill:#ffffff;stroke-width:0.0503347"
       id="path8"
       cx="21.709238"
       cy="47.49894"
       rx="0.91846097"
       ry="0.9177233" /><path
       id="path9"
       style="fill:#000000;stroke-width:0.114872"
       d="m 18.753588,43.612068 a 5.4398839,3.7188206 0 0 0 -5.439889,3.71883 5.4398839,3.7188206 0 0 0 0.08981,0.637226 5.4398839,3.7188206 0 0 1 5.433937,-3.662827 5.4398839,3.7188206 0 0 1 5.352537,3.060294 5.4398839,3.7188206 0 0 0 0.0037,-0.03471 5.4398839,3.7188206 0 0 0 -5.439903,-3.718851 z" /><ellipse
       style="fill:#000000;stroke-width:0.304014"
       id="path5-3"
       cx="-43.883144"
       cy="49.404472"
       rx="12.637581"
       ry="12.812468"
       transform="scale(-1,1)" /><ellipse
       style="fill:#ffffff;stroke-width:0.287014"
       id="path6-1"
       cx="-43.831894"
       cy="49.466293"
       rx="9.3470678"
       ry="9.5348835"
       transform="scale(-1,1)" /><ellipse
       style="fill:#000000;stroke-width:0.21233"
       id="path7-9"
       cx="-43.779068"
       cy="49.423988"
       rx="5.1786957"
       ry="5.1752644"
       transform="scale(-1,1)" /><ellipse
       style="fill:#ffffff;stroke-width:0.0503347"
       id="path8-4"
       cx="-45.896854"
       cy="47.965782"
       rx="0.91846097"
       ry="0.9177233"
       transform="scale(-1,1)" /><path
       id="path9-7"
       style="fill:#000000;stroke-width:0.115418"
       d="m 45.073942,44.078921 a 5.5501026,3.6795722 0 0 1 5.550108,3.679583 5.5501026,3.6795722 0 0 1 -0.09168,0.630486 5.5501026,3.6795722 0 0 0 -5.544034,-3.624159 5.5501026,3.6795722 0 0 0 -5.46097,3.02799 5.5501026,3.6795722 0 0 1 -0.0028,-0.03435 5.5501026,3.6795722 0 0 1 5.550123,-3.679593 z" /><rect
       style="fill:#000000;stroke-width:0.095631"
       id="rect11"
       width="9.3923388"
       height="9.3923388"
       x="59.297512"
       y="4.690371"
       transform="matrix(0.57677839,0.81690066,-0.57677839,0.81690066,0,0)" /><rect
       style="fill:#ffffff;stroke-width:0.0926265"
       id="rect10-0"
       width="5.165484"
       height="4.3127613"
       x="61.663094"
       y="7.2527847"
       transform="matrix(0.58785442,0.80896674,-0.65790536,0.75310062,0,0)" /><path
       id="rect10-06"
       style="fill:#000000;stroke-width:0.0998469"
       d="m 31.546972,54.742353 -3.102664,3.535245 3.035003,4.261714 0.199961,-7.611188 z" /><path
       id="path11"
       style="fill:#000000;stroke-width:0.29065"
       d="M 1.1485216,30.49991 A 20.008285,11.915551 0 0 0 1.108809,30.830659 20.008285,11.915551 0 0 0 13.870194,41.92194 41.416646,18.481297 0 0 1 13.539901,39.671965 41.416646,18.481297 0 0 1 14.036443,36.939652 22.489819,13.393351 0 0 1 1.1485216,30.49991 Z" /><path
       id="path11-4"
       style="fill:#000000;stroke-width:0.29065"
       d="m 63.473417,31.077414 a 20.008285,11.915551 0 0 1 0.03967,0.330749 20.008285,11.915551 0 0 1 -12.76139,11.091285 41.416646,18.481297 0 0 0 0.330295,-2.249987 41.416646,18.481297 0 0 0 -0.496546,-2.732305 22.489819,13.393351 0 0 0 12.887924,-6.439742 z" /></g></svg>
