<?xml version="1.0" encoding="UTF-8" standalone="no"?>
<!-- Created with Inkscape (http://www.inkscape.org/) -->

<svg
   width="210mm"
   height="297mm"
   viewBox="0 0 210 297"
   version="1.1"
   id="svg1"
   xml:space="preserve"
   inkscape:version="1.3.2 (091e20ef0f, 2023-11-25, custom)"
   sodipodi:docname="ocultar-logo.svg"
   inkscape:export-filename="ocultar-logo.png"
   inkscape:export-xdpi="96"
   inkscape:export-ydpi="96"
   xmlns:inkscape="http://www.inkscape.org/namespaces/inkscape"
   xmlns:sodipodi="http://sodipodi.sourceforge.net/DTD/sodipodi-0.dtd"
   xmlns="http://www.w3.org/2000/svg"
   xmlns:svg="http://www.w3.org/2000/svg"><sodipodi:namedview
     id="namedview1"
     pagecolor="#ffffff"
     bordercolor="#000000"
     borderopacity="0.25"
     inkscape:showpageshadow="2"
     inkscape:pageopacity="0.0"
     inkscape:pagecheckerboard="0"
     inkscape:deskcolor="#d1d1d1"
     inkscape:document-units="mm"
     showguides="false"
     inkscape:zoom="0.73139029"
     inkscape:cx="401.97416"
     inkscape:cy="561.25984"
     inkscape:window-width="1920"
     inkscape:window-height="994"
     inkscape:window-x="0"
     inkscape:window-y="0"
     inkscape:window-maximized="1"
     inkscape:current-layer="layer1" /><defs
     id="defs1"><rect
       x="174.07643"
       y="657.98391"
       width="429.01016"
       height="114.58464"
       id="rect12" /></defs><g
     inkscape:label="Layer 1"
     inkscape:groupmode="layer"
     id="layer1"><path
       style="fill:#000000;stroke-width:0.249835"
       id="path4"
       sodipodi:type="arc"
       sodipodi:cx="137.269"
       sodipodi:cy="68.318901"
       sodipodi:rx="30.890739"
       sodipodi:ry="34.201626"
       sodipodi:start="0"
       sodipodi:end="5.9391286"
       sodipodi:open="true"
       sodipodi:arc-type="arc"
       d="M 168.15974,68.318901 A 30.890739,34.201626 0 0 1 139.92276,102.39409 30.890739,34.201626 0 0 1 106.83422,74.173573 30.890739,34.201626 0 0 1 129.38604,35.249645 30.890739,34.201626 0 0 1 166.34936,56.782391"
       transform="matrix(0.86279851,0.50554796,-0.36507672,0.93097744,0,0)" /><path
       style="fill:#000000;stroke-width:0.251987"
       id="path4-4"
       sodipodi:type="arc"
       sodipodi:cx="137.67467"
       sodipodi:cy="69.747696"
       sodipodi:rx="31.374117"
       sodipodi:ry="34.257542"
       sodipodi:start="0"
       sodipodi:end="5.9391286"
       sodipodi:open="true"
       sodipodi:arc-type="arc"
       d="m 169.04878,69.747696 a 31.374117,34.257542 0 0 1 -28.67882,34.130894 31.374117,34.257542 0 0 1 -33.60631,-28.26665 31.374117,34.257542 0 0 1 22.90471,-38.987565 31.374117,34.257542 0 0 1 37.54171,21.56795"
       transform="matrix(0.86772838,0.49703868,-0.37229935,0.92811271,0,0)" /><path
       style="fill:#000000;stroke-width:0.204859"
       id="path2-5"
       sodipodi:type="arc"
       sodipodi:cx="147.85417"
       sodipodi:cy="-122.86137"
       sodipodi:rx="24.116428"
       sodipodi:ry="23.261219"
       sodipodi:start="0"
       sodipodi:end="2.8971767"
       sodipodi:open="true"
       sodipodi:arc-type="arc"
       d="m 171.9706,-122.86137 a 24.116428,23.261219 0 0 1 -21.17654,23.087738 24.116428,23.261219 0 0 1 -26.33955,-17.458758"
       transform="matrix(0.03509265,0.99938406,-0.99942886,0.03379288,0,0)"
       inkscape:transform-center-x="10.698634"
       inkscape:transform-center-y="-0.36815382" /><ellipse
       style="fill:#ffffff;stroke-width:0.295638"
       id="path3"
       cx="92.800728"
       cy="122.76107"
       rx="23.10046"
       ry="21.169474" /><path
       style="fill:#ffffff;stroke-width:0.323403"
       id="path3-6"
       sodipodi:type="arc"
       sodipodi:cx="124.48239"
       sodipodi:cy="-96.959961"
       sodipodi:rx="22.173473"
       sodipodi:ry="26.391424"
       sodipodi:start="0"
       sodipodi:end="3.1415927"
       sodipodi:arc-type="slice"
       d="m 146.65586,-96.959961 a 22.173473,26.391424 0 0 1 -11.08673,22.855644 22.173473,26.391424 0 0 1 -22.17348,-1e-6 22.173473,26.391424 0 0 1 -11.08673,-22.855643 h 22.17347 z"
       transform="rotate(90)" /><ellipse
       style="fill:#000000;stroke-width:0.313507"
       id="path5"
       cx="81.117455"
       cy="119.19077"
       rx="12.48695"
       ry="13.789428" /><ellipse
       style="fill:#ffffff;stroke-width:0.293755"
       id="path6"
       cx="81.168091"
       cy="119.46244"
       rx="9.2356577"
       ry="10.108534" /><ellipse
       style="fill:#000000;stroke-width:0.217315"
       id="path7"
       cx="81.220284"
       cy="119.41758"
       rx="5.1169686"
       ry="5.4866252" /><ellipse
       style="fill:#ffffff;stroke-width:0.0515168"
       id="path8"
       cx="82.970146"
       cy="117.87165"
       rx="0.9075135"
       ry="0.97293651" /><path
       id="path9"
       style="fill:#000000;stroke-width:0.117572"
       d="m 80.049727,113.75093 a 5.3750437,3.9425572 0 0 0 -5.37505,3.94257 5.3750437,3.9425572 0 0 0 0.08874,0.67556 5.3750437,3.9425572 0 0 1 5.36917,-3.88319 5.3750437,3.9425572 0 0 1 5.288736,3.24441 5.3750437,3.9425572 0 0 0 0.0035,-0.0368 5.3750437,3.9425572 0 0 0 -5.375066,-3.94259 z" /><ellipse
       style="fill:#000000;stroke-width:0.311155"
       id="path5-3"
       cx="-104.87975"
       cy="119.89183"
       rx="12.48695"
       ry="13.583309"
       transform="scale(-1,1)" /><ellipse
       style="fill:#ffffff;stroke-width:0.293755"
       id="path6-1"
       cx="-104.82912"
       cy="119.95737"
       rx="9.2356577"
       ry="10.108534"
       transform="scale(-1,1)" /><ellipse
       style="fill:#000000;stroke-width:0.217315"
       id="path7-9"
       cx="-104.77692"
       cy="119.91251"
       rx="5.1169686"
       ry="5.4866252"
       transform="scale(-1,1)" /><ellipse
       style="fill:#ffffff;stroke-width:0.0515168"
       id="path8-4"
       cx="-106.86945"
       cy="118.36658"
       rx="0.9075135"
       ry="0.97293651"
       transform="scale(-1,1)" /><path
       id="path9-7"
       style="fill:#000000;stroke-width:0.118129"
       d="m 106.05636,114.24587 a 5.4839486,3.9009473 0 0 1 5.48395,3.90096 5.4839486,3.9009473 0 0 1 -0.0906,0.66842 5.4839486,3.9009473 0 0 0 -5.47795,-3.8422 5.4839486,3.9009473 0 0 0 -5.39588,3.21016 5.4839486,3.9009473 0 0 1 -0.003,-0.0364 5.4839486,3.9009473 0 0 1 5.48397,-3.90097 z" /><rect
       style="fill:#000000;stroke-width:0.0991445"
       id="rect11"
       width="9.7374115"
       height="9.7374115"
       x="157.84369"
       y="-10.68318"
       transform="matrix(0.54970742,0.83535726,-0.54970742,0.83535726,0,0)" /><rect
       style="fill:#ffffff;stroke-width:0.0956551"
       id="rect10-0"
       width="5.3505154"
       height="4.4403443"
       x="158.20375"
       y="-6.1884789"
       transform="matrix(0.56076063,0.82797797,-0.63138544,0.77546916,0,0)" /><path
       id="rect10-06"
       style="fill:#000000;stroke-width:0.102192"
       d="m 92.69062,125.55085 -3.065681,3.74794 2.998824,4.51811 0.19758,-8.0691 z" /><path
       id="path11"
       style="fill:#000000;stroke-width:0.297476"
       d="m 62.654501,99.849903 a 19.769798,12.63243 0 0 0 -0.03924,0.350647 19.769798,12.63243 0 0 0 12.609278,11.75857 40.922985,19.593192 0 0 1 -0.326357,-2.38534 40.922985,19.593192 0 0 1 0.490625,-2.8967 22.221754,14.199139 0 0 1 -12.734306,-6.827177 z" /><path
       id="path11-4"
       style="fill:#000000;stroke-width:0.297476"
       d="m 124.23652,100.46215 a 19.769798,12.63243 0 0 1 0.0392,0.35065 19.769798,12.63243 0 0 1 -12.60928,11.75857 40.922985,19.593192 0 0 0 0.32636,-2.38535 40.922985,19.593192 0 0 0 -0.49063,-2.89669 22.221754,14.199139 0 0 0 12.73431,-6.82718 z" /><text
       xml:space="preserve"
       transform="matrix(0.26458333,0,0,0.26458333,24.620444,-4.3162961)"
       id="text12"
       style="font-style:normal;font-variant:normal;font-weight:normal;font-stretch:normal;font-size:53.3333px;font-family:'Berlin Sans FB Demi';-inkscape-font-specification:'Berlin Sans FB Demi';letter-spacing:1.3px;white-space:pre;shape-inside:url(#rect12);display:inline;fill:#000000"><tspan
         x="174.07617"
         y="708.31883"
         id="tspan1">Ocultar</tspan></text></g></svg>
